
Discovering covert and faulty intelligence causes a
U.S. Army officer to go rogue as he hunts for
Weapons of Mass Destruction in an unstable region.

 

Director: 
Paul Greengrass

 Writers: 
Brian Helgeland, Rajiv Chandrasekaran (book)
 
Stars:
 Matt Damon, Jason Isaacs and Greg Kinnear

 


udp://tracker.openbittorrent.com:80/announce

udp://tracker.publicbt.com:80/announce
 
http://the.illusionist.tracker.prq.to/announce
 
http://exodus.desync.com/announce
 
http://gemini.tracker.prq.to/announce


Hashcode: 428FD464165ED2924AF0F7B17E77C553AB1494FF

General

Format : AVI
Format/Info : Audio Video Interleave
File size : 1.17 GiB
Duration : 1h 49mn
Overall bit rate : 1 520 Kbps
Movie name : GREEN_ZONE.Title23.DVDRip
Writing application : Lavf52.33.0
Original source form/Name : GREEN_ZONE

Video

ID : 0
Format : AVC
Format/Info : Advanced Video Codec
Format profile : Baseline@L1.3
Format settings, CABAC : No
Format settings, ReFrames : 1 frame
Codec ID : H264
Duration : 1h 49mn
Bit rate : 1 125 Kbps
Nominal bit rate : 1 013 Kbps
Width : 1 024 pixels
Height : 428 pixels
Display aspect ratio : 2.40:1
Frame rate : 25.000 fps
Color space : YUV
Chroma subsampling : 4:2:0
Bit depth : 8 bits
Scan type : Progressive
Bits/(Pixel*Frame) : 0.103
Stream size : 885 MiB (74%)
Writing library : x264 core 67

Audio

ID : 1
Format : AC-3
Format/Info : Audio Coding 3
Mode extension : CM (complete main)
Codec ID : 2000
Duration : 1h 49mn
Bit rate mode : Constant
Bit rate : 384 Kbps
Channel(s) : 6 channels
Channel positions : Front: L C R, Side: L R, LFE
Sampling rate : 48.0 KHz
Bit depth : 16 bits
Compression mode : Lossy
Stream size : 302 MiB (25%)
Alignment : Aligned on interleaves
Interleave, duration : 32 ms (0.80 video frame)


SEED PLEASE!!!

Cheerss..

R_S